# AST/ASF file generated using VICON BodyLanguage
# -----------------------------------------------
:version 1.10
:name VICON
:units
  mass 1.0
  length 0.45
  angle deg
:documentation
   .ast/.asf automatically generated from VICON data using
   VICON BodyBuilder and BodyLanguage model FoxedUp or BRILLIANT.MOD
:root
   order TX TY TZ RX RY RZ
   axis XYZ
   position 0 0 0  
   orientation 0 0 0 
:bonedata
  begin
     id 1 
     name lhipjoint
     direction 0.625129 -0.738222 0.253461 
     length 2.5165 
     axis 0 0 0  XYZ
  end
  begin
     id 2 
     name lfemur
     direction 0.34202 -0.939693 0  
     length 7.54288  
     axis 0 0 20  XYZ
    dof rx ry rz
    limits (-160.0 20.0)
           (-70.0 70.0)
           (-60.0 70.0)
  end
  begin
     id 3 
     name ltibia
     direction 0.34202 -0.939693 0   
     length 7.71864   
     axis 0 0 20   XYZ
    dof rx
    limits (-10.0 170.0)
  end
  begin
     id 4 
     name lfoot
     direction 0.0772037 -0.212115 0.97419   
     length 2.18429   
     axis -90 7.62852e-016 20   XYZ
    dof rx rz
    limits (-45.0 90.0)
           (-70.0 20.0)
  end
  begin
     id 5 
     name ltoes
     direction 1.53513e-011 -4.21834e-011 1   
     length 1.09718   
     axis -90 7.62852e-016 20   XYZ
    dof rx
    limits (-90.0 20.0)
  end
  begin
     id 6 
     name rhipjoint
     direction -0.621946 -0.740623 0.254285   
     length 2.50835  
     axis 0 0 0  XYZ 
  end
  begin
     id 7 
     name rfemur
     direction -0.34202 -0.939693 0   
     length 7.43366   
     axis 0 0 -20   XYZ
    dof rx ry rz
    limits (-160.0 20.0)
           (-70.0 70.0)
           (-70.0 60.0)
  end
  begin
     id 8 
     name rtibia
     direction -0.34202 -0.939693 0   
     length 7.77122   
     axis 0 0 -20   XYZ
    dof rx
    limits (-10.0 170.0)
 end
 begin
     id 9 
     name rfoot
     direction -0.082694 -0.2272 0.970331   
     length 2.2293  
     axis -90 -7.62852e-016 -20   XYZ
    dof rx rz
    limits (-45.0 90.0)
           (-20.0 70.0)
  end
  begin
     id 10 
     name rtoes
     direction -1.53565e-011 -4.21695e-011 1   
     length 1.1178   
     axis -90 -7.62852e-016 -20   XYZ
    dof rx
    limits (-90.0 20.0)
  end
  begin
     id 11 
     name lowerback
     direction -0.000695208 0.988391 -0.151929   
     length 1.95077   
     axis 0 0 0   XYZ
    dof rx ry rz
    limits (-20.0 45.0)
           (-30.0 30.0)
           (-30.0 30.0)
  end
  begin
     id 12 
     name upperback
     direction -0.00268925 0.999885 -0.0149203   
     length 1.96246   
     axis 0 0 0   XYZ
    dof rx ry rz
    limits (-20.0 45.0)
           (-30.0 30.0)
           (-30.0 30.0)
  end
  begin
     id 13 
     name thorax
     direction -0.000848408 0.998481 0.0550912   
     length 2.00867   
     axis 0 0 0   XYZ
    dof rx ry rz
    limits (-20.0 45.0)
           (-30.0 30.0)
           (-30.0 30.0)
  end
  begin
     id 14 
     name lowerneck
     direction -0.00577709 0.998999 0.0443608   
     length 1.75762   
     axis 0 0 0   XYZ
    dof rx ry rz
    limits (-20.0 45.0)
           (-30.0 30.0)
           (-30.0 30.0)
  end
  begin
     id 15 
     name upperneck
     direction 0.0320945 0.999136 0.0264105   
     length 1.72601   
     axis 0 0 0   XYZ
    dof rx ry rz
    limits (-20.0 45.0)
           (-30.0 30.0)
           (-30.0 30.0)
  end
  begin
     id 16
     name head
     direction 0.0120552 0.999916 0.00480151  
     length 1.79973  
     axis 0 0 0   XYZ
    dof rx ry rz
    limits (-20.0 45.0)
           (-30.0 30.0)
           (-30.0 30.0)
  end
  begin
     id 17 
     name lclavicle
     direction 0.909 0.371533 -0.188897  
     length 3.47956  
     axis 0 0 0   XYZ
    dof ry rz
    limits (-20.0 10.0)
           (0.0 20.0)
  end
  begin
     id 18 
     name lhumerus
     direction 1 -4.48963e-011 -6.48352e-028   
     length 5.52302   
     axis 180 -30 -90   XYZ
    dof rx ry rz
    limits (-60.0 90.0)
           (-90.0 90.0)
           (-90.0 90.0)
  end
  begin
     id 19
     name lradius
     direction 1 -4.48968e-011 -4.78536e-027   
     length 3.58675   
     axis 180 -30 -90   XYZ
    dof rx
    limits (-10.0 170.0)
  end
  begin
     id 20
     name lwrist
     direction 1 -4.48942e-011 -9.9435e-027   
     length 1.79337   
     axis 8.54312e-015 90 90   XYZ
    dof ry
    limits (-180.0 0.0)
 end
  begin
     id 21 
     name lhand
     direction 1 -4.4904e-011 -1.9887e-026   
     length 0.536412   
     axis 1.26896e-014 90 90   XYZ
    dof rx rz
    limits (-90.0 90.0)
           (-45.0 45.0)
  end
  begin
     id 22 
     name lfingers
     direction 1 -4.48893e-011 -3.9774e-026   
     length 0.432469   
     axis 2.53792e-014 90 90   XYZ
    dof rx
    limits (0.0 90.0)
  end
  begin
     id 23
     name lthumb
     direction 0.707107 -6.34934e-011 0.707107   
     length 0.620942   
     axis -90 45 2.85299e-015   XYZ
    dof rx rz
    limits (-45.0 45.0)
           (-45.0 45.0)
  end
  begin
     id 24 
     name rclavicle
     direction -0.89595 0.416672 -0.153813   
     length 3.44099  
     axis 0 0 0   XYZ 
    dof ry rz
    limits (-10.0 20.0)
           (-20.0 0.0)
  end
  begin
     id 25 
     name rhumerus
     direction -1 -4.48952e-011 5.57804e-028  
     length 5.8478   
     axis 180 30 90   XYZ
    dof rx ry rz
    limits (-90.0 60.0)
           (-90.0 90.0)
           (-90.0 90.0)
  end
  begin
     id 26 
     name rradius
     direction -1 -4.48967e-011 -7.93646e-027   
     length 3.62717   
     axis 180 30 90   XYZ
    dof rx
    limits (-10.0 170.0)
  end
  begin
     id 27 
     name rwrist
     direction -1 -4.49008e-011 -9.9435e-027   
     length 1.81359   
     axis 8.54312e-015 -90 -90   XYZ
    dof ry
    limits (-180.0 0.0)
  end
  begin
     id 28
     name rhand
     direction -1 -4.48812e-011 -1.9887e-026   
     length 0.650516   
     axis 1.26896e-014 -90 -90   XYZ
    dof rx rz
    limits (-90.0 90.0)
           (-45.0 45.0)
  end
  begin
     id 29
     name rfingers
     direction -1 -4.49228e-011 -3.9774e-026   
     length 0.524463   
     axis 2.53792e-014 -90 -90   XYZ
    dof rx
    limits (0.0 90.0)
  end
  begin
     id 30
     name rthumb
     direction -0.707107 -6.34912e-011 0.707107   
     length 0.753027   
     axis -90 -45 -2.85299e-015   XYZ
    dof rx rz
    limits (-45.0 45.0)
           (-45.0 45.0)
  end
:hierarchy
  begin
    root lhipjoint rhipjoint lowerback
    lhipjoint lfemur
    lfemur ltibia
    ltibia lfoot
    lfoot ltoes
    rhipjoint rfemur
    rfemur rtibia
    rtibia rfoot
    rfoot rtoes
    lowerback upperback
    upperback thorax
    thorax lowerneck lclavicle rclavicle
    lowerneck upperneck
    upperneck head
    lclavicle lhumerus
    lhumerus lradius
    lradius lwrist
    lwrist lhand lthumb
    lhand lfingers
    rclavicle rhumerus
    rhumerus rradius
    rradius rwrist
    rwrist rhand rthumb
    rhand rfingers
  end

#!OML:ASF F:\VICON\USERDATA\INSTALL\rory3\rory3.ASF
:FULLY-SPECIFIED
:DEGREES
33
root 0.0757967 18.0962 -10.7138 5.04375 -4.25802 1.08323
lowerback 13.7915 -3.14169 -3.4184
upperback 0.132897 -4.71393 -0.00693214
thorax -7.31423 -2.16913 2.84247
lowerneck -6.6789 2.36537 -1.1412
upperneck -5.35243 3.21655 0.304178
head -0.566996 1.6227 0.320854
rclavicle -8.49804e-015 8.34896e-015
rhumerus -59.3472 10.3276 -87.2225
rradius 93.2754
rwrist -7.26399
rhand -39.4375 33.9367
rfingers 7.12502
rthumb -12.4255 4.32598
lclavicle -8.49804e-015 8.34896e-015
lhumerus -26.6335 -24.1548 90.8121
lradius 119.758
lwrist 22.5382
lhand -37.0732 5.94921
lfingers 7.12502
lthumb -10.1452 35.6846
rfemur -29.3009 2.59753 23.2895
rtibia 20.485
rfoot 4.01953 -2.76368
rtoes -5.41516
lfemur 16.1032 -0.715241 -27.3581
ltibia 56.9804
lfoot 28.2958 -0.869621
ltoes -14.7292
34
root 0.0882169 18.0191 -10.1971 4.48254 -4.93941 0.421947
lowerback 14.7794 -2.95885 -2.67533
upperback 0.0935506 -4.36707 0.188152
thorax -7.97456 -2.00345 2.6364
lowerneck -6.46344 2.41624 -1.15246
upperneck -5.36789 3.27824 0.129542
head -0.603727 1.65398 0.267454
rclavicle 3.926e-015 -8.74653e-015
rhumerus -58.3522 11.5758 -87.3475
rradius 93.5444
rwrist -8.36585
rhand -39.3958 33.7554
rfingers 7.12502
rthumb -12.3853 4.14225
lclavicle 3.926e-015 -8.74653e-015
lhumerus -28.398 -23.0941 91.4515
lradius 117.875
lwrist 22.0363
lhand -37.8501 3.57835
lfingers 7.12502
lthumb -10.8947 33.2757
rfemur -28.7083 1.08562 25.0979
rtibia 23.3157
rfoot 2.80792 0.909819
rtoes -2.81337
lfemur 14.9487 1.11937 -25.7928
ltibia 62.2294
lfoot 26.24 -0.834439
ltoes -15.6964
35
root 0.0963428 17.9231 -9.69518 3.89907 -5.61653 -0.227124
lowerback 15.134 -2.70873 -1.97681
upperback 0.598177 -3.90654 0.283956
thorax -7.69441 -1.81573 2.25362
lowerneck -6.69423 2.47756 -1.00061
upperneck -5.61504 3.34802 -0.0268055
head -0.637503 1.68699 0.197504
rclavicle -2.45002e-014 1.86858e-014
rhumerus -56.4826 12.6039 -87.3291
rradius 94.0915
rwrist -9.44238
rhand -39.3589 33.4588
rfingers 7.12502
rthumb -12.3497 3.84354
lclavicle -2.45002e-014 1.86858e-014
lhumerus -28.9992 -22.6604 91.6101
lradius 116.24
lwrist 23.6004
lhand -37.6689 5.17378
lfingers 7.12502
lthumb -10.7199 34.8803
rfemur -28.0491 0.522739 26.4427
rtibia 26.6776
rfoot 0.28472 1.98858
rtoes 4.3455
lfemur 13.6046 3.07521 -23.949
ltibia 67.553
lfoot 25.2223 -0.997614
ltoes -14.5412
36
root 0.0957615 17.8135 -9.20823 3.34257 -6.73379 -0.798513
lowerback 15.505 -2.25975 -1.75143
upperback 1.11966 -3.2562 0.504375
thorax -7.36901 -1.5154 2.22708
lowerneck -6.87051 2.55437 -1.04798
upperneck -5.77655 3.44931 -0.20947
head -0.656856 1.7394 0.152251
rclavicle 6.69904e-014 1.59028e-014
rhumerus -54.6072 13.9766 -87.0793
rradius 95.007
rwrist -10.5142
rhand -39.6576 33.067
rfingers 7.12502
rthumb -12.6377 3.46929
lclavicle 6.69904e-014 1.59028e-014
lhumerus -29.5621 -21.7785 91.7695
lradius 114.645
lwrist 25.5931
lhand -37.0408 6.66444
lfingers 7.12502
lthumb -10.114 36.4014
rfemur -27.384 1.23584 27.3493
rtibia 30.1932
rfoot -2.48607 1.32204
rtoes 9.08068
lfemur 11.9987 5.43653 -22.0171
ltibia 72.8306
lfoot 24.6443 -1.27384
ltoes -12.0196
37
root 0.0854001 17.7354 -8.71115 2.91844 -7.85573 -1.44472
lowerback 16.9628 -1.87209 -1.40968
upperback 0.818671 -2.68566 0.72295
thorax -8.53792 -1.22153 2.22082
lowerneck -6.32702 2.64212 -1.22338
upperneck -5.63737 3.57456 -0.138597
head -0.706261 1.80551 0.197078
rclavicle 2.73329e-015 4.17448e-015
rhumerus -53.858 15.6482 -87.1549
rradius 95.9847
rwrist -11.4239
rhand -39.8761 33.0237
rfingers 7.12502
rthumb -12.8483 3.43918
lclavicle 2.73329e-015 4.17448e-015
lhumerus -32.0212 -20.8922 92.7635
lradius 113.147
lwrist 24.9412
lhand -36.8202 7.28156
lfingers 7.12502
lthumb -9.90122 37.0287
rfemur -27.007 2.37784 28.1951
rtibia 33.5215
rfoot -4.47179 0.358798
rtoes 9.837
lfemur 10.0002 7.70469 -19.8835
ltibia 78.0469
lfoot 24.2034 -1.98003
ltoes -11.7762
38
root 0.0841619 17.667 -8.22054 2.70845 -8.26887 -2.07917
lowerback 17.0657 -1.77183 -0.885894
upperback 1.30612 -2.43039 0.981215
thorax -8.08624 -1.12456 2.13182
lowerneck -6.12393 2.69804 -1.39502
upperneck -6.44935 3.64797 -0.238722
head -0.991053 1.84954 0.185617
rclavicle -1.38652e-014 1.78906e-015
rhumerus -51.2006 17.3569 -86.7657
rradius 96.4645
rwrist -12.0887
rhand -39.9791 32.5026
rfingers 7.12502
rthumb -12.9476 2.92429
lclavicle -1.38652e-014 1.78906e-015
lhumerus -32.9292 -19.7051 93.1772
lradius 111.592
lwrist 25.412
lhand -36.7436 7.27395
lfingers 7.12502
lthumb -9.82728 37.0246
rfemur -26.8075 2.95213 28.9992
rtibia 36.5408
rfoot -5.9066 -1.05107
rtoes 9.99813
lfemur 8.36483 9.12116 -17.846
ltibia 82.8753
lfoot 23.3815 -1.77277
ltoes -7.33671
39
root 0.0975026 17.5572 -7.74829 2.62105 -8.28284 -2.8598
lowerback 17.4591 -1.82231 0.0803024
upperback 1.64534 -2.29414 1.19629
thorax -7.97011 -1.09127 1.78957
lowerneck -6.02073 2.71055 -1.34824
upperneck -7.28124 3.64618 -0.455519
head -1.26237 1.85303 0.103251
rclavicle -8.05078e-015 -1.2921e-014
rhumerus -48.4538 18.9179 -86.3203
rradius 96.8872
rwrist -12.4071
rhand -40.357 31.9262
rfingers 7.12502
rthumb -13.3119 2.37138
lclavicle -8.05078e-015 -1.2921e-014
lhumerus -33.7112 -18.6493 93.3692
lradius 110.122
lwrist 26.1908
lhand -36.1047 9.47612
lfingers 7.12502
lthumb -9.21081 39.2549
rfemur -26.0997 2.85009 29.9978
rtibia 39.059
rfoot -7.50962 -2.39497
rtoes 9.58843
lfemur 6.09837 10.1126 -15.7735
ltibia 87.8476
lfoot 22.5067 -1.91011
ltoes -3.42897
40
root 0.111484 17.44 -7.28211 2.5683 -8.40334 -3.71347
lowerback 17.8012 -1.73623 1.17731
upperback 2.14022 -1.96326 1.27789
thorax -7.66461 -0.968399 1.17563
lowerneck -6.45066 2.70243 -1.03138
upperneck -8.14492 3.61274 -0.575612
head -1.45557 1.83222 0.0130651
rclavicle -5.26779e-015 -1.55052e-014
rhumerus -45.2816 20.013 -85.6924
rradius 97.3304
rwrist -12.6118
rhand -40.7454 31.7873
rfingers 7.12502
rthumb -13.6862 2.25727
lclavicle -5.26779e-015 -1.55052e-014
lhumerus -33.9598 -18.1374 93.1781
lradius 108.61
lwrist 26.3697
lhand -34.608 9.32069
lfingers 7.12502
lthumb -7.76647 39.1581
rfemur -24.8809 2.88743 30.9201
rtibia 40.9595
rfoot -9.57088 -3.15263
rtoes 10.437
lfemur 3.58737 11.1448 -13.6425
ltibia 92.6481
lfoot 19.4783 -4.69339
ltoes -7.32263
41
root 0.11793 17.3411 -6.8237 2.73201 -8.31961 -4.83028
lowerback 18.0469 -1.73143 2.45795
upperback 2.34012 -1.69155 1.44258
thorax -7.61674 -0.87231 0.564393
lowerneck -5.97846 2.72388 -0.558694
upperneck -9.22507 3.5967 -0.799591
head -1.86754 1.81773 -0.151907
rclavicle 5.76476e-015 3.18055e-015
rhumerus -42.7573 21.1185 -85.0944
rradius 98.0008
rwrist -12.8515
rhand -40.7989 32.0698
rfingers 7.12502
rthumb -13.7378 2.54335
lclavicle 5.76476e-015 3.18055e-015
lhumerus -35.1628 -17.595 93.4278
lradius 107.544
lwrist 26.6604
lhand -36.3266 12.1954
lfingers 7.12502
lthumb -9.42493 41.9646
rfemur -23.5642 3.00201 31.9354
rtibia 42.2704
rfoot -11.9395 -3.24235
rtoes 15.2234
lfemur 0.748188 12.0128 -11.1876
ltibia 97.1582
lfoot 17.6478 -6.40685
ltoes -5.88968
42
root 0.120171 17.2736 -6.35791 3.27728 -7.93541 -6.22301
lowerback 17.9124 -1.88509 4.01104
upperback 1.94663 -1.55972 1.72207
thorax -8.00327 -0.856848 -0.0402058
lowerneck -3.60518 2.77392 -0.0284508
upperneck -10.4896 3.61456 -1.1288
head -2.68189 1.82332 -0.399168
rclavicle 6.36111e-015 -1.19271e-014
rhumerus -41.5898 22.3975 -84.8383
rradius 98.8962
rwrist -12.8064
rhand -40.5892 32.237
rfingers 7.12502
rthumb -13.5357 2.69692
lclavicle 6.36111e-015 -1.19271e-014
lhumerus -37.8365 -16.8035 94.1232
lradius 106.798
lwrist 26.9289
lhand -38.1913 13.2793
lfingers 7.12502
lthumb -11.2238 42.9591
rfemur -22.5721 2.67056 33.3579
rtibia 42.9994
rfoot -13.5339 -3.6055
rtoes 13.9593
lfemur -2.68012 12.6977 -8.53337
ltibia 101.272
lfoot 16.5025 -7.60555
ltoes -2.84169
43
root 0.11501 17.2387 -5.88904 3.59285 -8.39436 -7.09895
lowerback 17.6996 -1.71203 4.55382
upperback 3.14195 -1.26835 2.0485
thorax -6.58631 -0.700614 -0.0998439
lowerneck -8.07879 2.92524 -0.218774
upperneck -9.49513 3.829 -1.18845
head -1.59034 1.92396 -0.295016
rclavicle 7.85199e-015 2.14687e-014
rhumerus -36.5203 23.754 -82.9018
rradius 99.3629
rwrist -12.7325
rhand -40.3086 31.6982
rfingers 7.12502
rthumb -13.2652 2.14035
lclavicle 7.85199e-015 2.14687e-014
lhumerus -36.7568 -15.6414 93.6551
lradius 105.646
lwrist 26.5199
lhand -38.0891 12.918
lfingers 7.12502
lthumb -11.1252 42.6031
rfemur -21.5923 2.4402 34.4052
rtibia 43.4516
rfoot -14.0823 -4.86177
rtoes 2.67369
lfemur -5.78805 14.1888 -6.62772
ltibia 104.691
lfoot 14.3053 -8.67763
ltoes -4.59869
44
root 0.112466 17.1527 -5.44617 3.88393 -8.29365 -7.56718
lowerback 17.8644 -1.6179 4.91574
upperback 2.39625 -1.02184 2.14312
thorax -7.4782 -0.608888 -0.241135
lowerneck -4.91727 2.82689 0.175741
upperneck -10.3678 3.6566 -1.46764
head -2.39845 1.84209 -0.515425
rclavicle 3.56818e-014 -4.77083e-015
rhumerus -36.0851 24.8492 -82.7237
rradius 100.298
rwrist -12.6096
rhand -40.324 31.9565
rfingers 7.12502
rthumb -13.2801 2.39964
lclavicle 3.56818e-014 -4.77083e-015
lhumerus -40.0961 -14.54 94.2038
lradius 105.204
lwrist 25.9725
lhand -37.481 12.6965
lfingers 7.12502
lthumb -10.5387 42.4123
rfemur -19.8753 3.40669 34.4326
rtibia 43.7316
rfoot -16.1127 -4.26897
rtoes 9.229
lfemur -9.41874 15.1168 -5.45093
ltibia 107.967
lfoot 12.3823 -9.33297
ltoes -4.58614
